<?xml version="1.0" encoding="UTF-8"?>
<svg version="1.1" xmlns="http://www.w3.org/2000/svg" width="688" height="221">
<path d="M0 0 C5.36174482 3.23727989 7.49036864 6.90870342 9 13 C9.3332614 16.67926078 9.28675452 20.3097677 9.1875 24 C9.16719727 25.44826172 9.16719727 25.44826172 9.14648438 26.92578125 C9.11145458 29.28445425 9.06234084 31.64191771 9 34 C9.39541992 33.46600586 9.79083984 32.93201172 10.19824219 32.38183594 C10.72579102 31.67317383 11.25333984 30.96451172 11.796875 30.234375 C12.31604492 29.53538086 12.83521484 28.83638672 13.37011719 28.11621094 C18.53351885 21.41214179 23.61418243 17.066071 32 15 C36.68222812 14.92324216 38.29899751 15.4056718 41.875 18.4375 C44.55801267 21.67289763 45.41945725 23.62894686 45.33984375 27.875 C44.09247628 35.67463108 38.99469197 42.15117471 33 47 C31.01343642 48.35327119 29.01556191 49.69030998 27 51 C28.18335937 50.96519531 29.36671875 50.93039063 30.5859375 50.89453125 C49.53081416 50.49972106 49.53081416 50.49972106 58.125 56 C60.98261387 60.57218219 61.1959436 64.7715799 60 70 C56.86732274 74.77450209 52.65922123 76.37033032 47.20703125 77.6315918 C43.46690345 78.2559118 39.78106333 78.2101886 36 78.125 C35.22527344 78.11597656 34.45054688 78.10695313 33.65234375 78.09765625 C31.76809157 78.07439388 29.88400168 78.0385364 28 78 C28.80824219 78.67804688 29.61648437 79.35609375 30.44921875 80.0546875 C38.00195279 86.5614409 44.14241513 92.46091537 45.5 102.8125 C44.94145248 106.37324044 44.30784383 108.2305874 42 111 C38.06909785 113.74248988 34.91787416 114.54708931 30.140625 113.69921875 C21.11384782 110.75069117 13.60168366 103.05983515 9 95 C9.09539062 95.79921875 9.19078125 96.5984375 9.2890625 97.421875 C10.16206197 106.07066041 10.93198524 115.84852369 6.125 123.5625 C2.72818619 127.45884526 1.40467454 128.81875167 -3.875 129.5 C-7.2778241 129.35425521 -8.23615811 128.85295816 -11.3125 126.9375 C-17.53971694 120.13100707 -17.85991253 112.95482239 -18 104 C-17.81929079 100.94475357 -17.46217743 98.0298298 -17 95 C-17.32871094 95.4846875 -17.65742187 95.969375 -17.99609375 96.46875 C-23.69189292 104.49535045 -30.18204352 111.62468795 -40 114 C-45.33355818 113.90960071 -48.17923363 112.70839089 -52 109 C-53.78076551 105.43846897 -53.61351949 101.88169063 -53 98 C-49.233497 89.14871796 -42.54843385 82.71851049 -35 77 C-35.68578125 77.15984375 -36.3715625 77.3196875 -37.078125 77.484375 C-45.41568435 78.955709 -55.45491305 79.36658406 -63 75 C-66.8021046 71.94092624 -68.72261435 69.29446639 -69.75 64.5 C-68.72261435 59.70553361 -66.8021046 57.05907376 -63 54 C-54.52240348 49.09374271 -43.25241179 50.25903025 -34 52 C-34.556875 51.59910156 -35.11375 51.19820312 -35.6875 50.78515625 C-43.27565868 45.13249075 -51.7430986 38.60756111 -53.37109375 28.75390625 C-53.49153949 24.77919676 -53.36462991 21.80411251 -51 18.5 C-47.38555537 15.48796281 -44.59577736 14.66622846 -40 15 C-29.8007836 17.30304886 -22.46789685 25.43362826 -17 34 C-17.10699219 32.88882813 -17.21398437 31.77765625 -17.32421875 30.6328125 C-18.19432646 20.39868848 -18.70368316 10.58071445 -12 2 C-8.53886428 -0.69199445 -4.19607185 -0.7680671 0 0 Z " fill="#000000" transform="translate(92,46)"/>
<path d="M0 0 C9.26154042 6.46945838 13.86688393 14.89521827 16.4453125 25.8203125 C19.15135771 41.56111069 19.09881205 60.92242771 9.6875 74.609375 C2.88650046 83.36236986 -5.58914696 87.21466279 -16.375 89.046875 C-30.85442018 90.56559219 -44.46970304 88.90033571 -56.421875 80.046875 C-64.33198183 73.01566893 -67.80466975 61.95990006 -68.51733398 51.64453125 C-68.61646058 48.35948083 -68.63453705 45.08334307 -68.625 41.796875 C-68.64916992 40.14848633 -68.64916992 40.14848633 -68.67382812 38.46679688 C-68.68132662 25.74185259 -66.14088441 14.26010248 -57.49609375 4.57421875 C-43.42675246 -8.81297266 -16.16563942 -9.72122911 0 0 Z M-39.3125 14.609375 C-46.5798647 24.74479667 -46.50503193 39.11133232 -44.84765625 50.921875 C-43.16509468 58.72736772 -40.12869347 65.39573839 -33.9375 70.609375 C-27.35226735 73.11803506 -20.89646211 73.15465424 -14.3125 70.609375 C-11.51421019 68.42174315 -10.45201852 66.01017496 -9.1875 62.734375 C-8.85492188 61.89132813 -8.52234375 61.04828125 -8.1796875 60.1796875 C-4.48166186 49.21887277 -4.27088033 33.123522 -9.3125 22.609375 C-12.0427743 17.69488126 -15.23789719 14.1466764 -20.3125 11.609375 C-30.42192761 10.70486807 -30.42192761 10.70486807 -39.3125 14.609375 Z " fill="#000000" transform="translate(345.3125,64.390625)"/>
<path d="M0 0 C7.92 0 15.84 0 24 0 C26.93271922 11.17560102 29.86206139 22.35206692 32.78413391 33.53045654 C34.15883143 38.78840105 35.53713551 44.04536888 36.92037964 49.30107117 C37.67237532 52.16198841 38.42041177 55.02392893 39.16723633 57.88619995 C39.5125154 59.20609037 39.85950551 60.52553444 40.20825195 61.84451294 C40.68890594 63.66338833 41.16298621 65.48399713 41.63671875 67.3046875 C41.90186279 68.31515137 42.16700684 69.32561523 42.44018555 70.36669922 C43 73 43 73 43 77 C43.66 77 44.32 77 45 77 C45.09896576 76.3123053 45.19793152 75.6246106 45.29989624 74.91607666 C46.62415614 66.32706451 48.68343541 57.9968055 50.9140625 49.609375 C51.29281803 48.16933328 51.67109503 46.72916563 52.04891968 45.28887939 C53.03383005 41.53948782 54.0251334 37.79181693 55.0178833 34.04449463 C56.03409909 30.20387934 57.04411396 26.36163424 58.0546875 22.51953125 C60.03047211 15.01143069 62.01360127 7.50530086 64 0 C72.25 0 80.5 0 89 0 C83.79631351 20.31915677 78.3663912 40.57266846 72.88818359 60.81933594 C72.58917145 61.92598099 72.2901593 63.03262604 71.98208618 64.17280579 C71.42088856 66.24956274 70.85876963 68.32607106 70.29550171 70.40226746 C68.65457673 76.47642186 67.10939363 82.56586776 65.64459229 88.68507385 C65 91 65 91 64 92 C61.04294679 92.08868299 58.10934944 92.11520296 55.15234375 92.09765625 C53.82270348 92.09553383 53.82270348 92.09553383 52.46620178 92.09336853 C49.62326746 92.08775215 46.78041069 92.07519691 43.9375 92.0625 C42.01497509 92.05748711 40.09244896 92.05292384 38.16992188 92.04882812 C33.44658451 92.03777741 28.72330542 92.02050183 24 92 C21.21635543 82.1072108 18.50322839 72.19803229 15.87890625 62.26171875 C15.60895844 61.23974396 15.33901062 60.21776917 15.06088257 59.16482544 C13.9496486 54.9538271 12.83995752 50.74242595 11.73217773 46.53051758 C10.90797688 43.39874879 10.08164299 40.26755478 9.25390625 37.13671875 C8.98615387 36.12294159 8.71840149 35.10916443 8.4425354 34.06466675 C6.35008994 26.19461932 4.13098643 18.36457373 1.79945374 10.56193542 C1.56262375 9.75492691 1.32579376 8.9479184 1.08178711 8.11645508 C0.87218857 7.41474686 0.66259003 6.71303864 0.44664001 5.99006653 C0 4 0 4 0 0 Z " fill="#000000" transform="translate(185,60)"/>
<path d="M0 0 C24.75 0 49.5 0 75 0 C75 5.94 75 11.88 75 18 C66.42 18 57.84 18 49 18 C49 42.42 49 66.84 49 92 C41.08 92 33.16 92 25 92 C25.33 67.58 25.66 43.16 26 18 C17.42 18 8.84 18 0 18 C0 12.06 0 6.12 0 0 Z " fill="#000000" transform="translate(364,60)"/>
<path d="M0 0 C23.43 0 46.86 0 71 0 C71 5.61 71 11.22 71 17 C55.49 17 39.98 17 24 17 C24 24.26 24 31.52 24 39 C28.516875 38.7525 28.516875 38.7525 33.125 38.5 C44.42048574 37.923359 55.69288556 37.90243142 67 38 C67 43.28 67 48.56 67 54 C52.81 53.67 38.62 53.34 24 53 C24 60.26 24 67.52 24 75 C39.51 75 55.02 75 71 75 C71 80.61 71 86.22 71 92 C47.57 92 24.14 92 0 92 C0 61.64 0 31.28 0 0 Z " fill="#000000" transform="translate(446,60)"/>
<path d="M0 0 C7.92 0 15.84 0 24 0 C24 24.42 24 48.84 24 74 C36.54 73.67 49.08 73.34 62 73 C62 85 62 85 61 92 C40.87 92 20.74 92 0 92 C0 61.64 0 31.28 0 0 Z " fill="#000000" transform="translate(529,60)"/>
<path d="M0 0 C8.91 0 17.82 0 27 0 C30.63 14.52 34.26 29.04 38 44 C40.97 44.495 40.97 44.495 44 45 C44.20753906 44.01386719 44.41507813 43.02773437 44.62890625 42.01171875 C47.65830108 27.89365932 51.33231481 13.96541667 55 0 C63.91 0 72.82 0 82 0 C79.26614854 10.02412203 76.37464472 19.97883563 73.38427734 29.92675781 C72.79180243 31.90211039 72.20231227 33.87836052 71.61572266 35.85546875 C70.76086092 38.73640513 69.89707349 41.61452921 69.03125 44.4921875 C68.64205383 45.81257523 68.64205383 45.81257523 68.24499512 47.15963745 C65.11711663 57.46691554 65.11711663 57.46691554 61.1875 60.3125 C59 61 59 61 53 61 C53 71.23 53 81.46 53 92 C44.75 92 36.5 92 28 92 C28 81.77 28 71.54 28 61 C25.36 60.67 22.72 60.34 20 60 C16.52737476 56.7941142 15.22282432 53.44683243 13.88671875 48.9765625 C13.52892334 47.80077637 13.17112793 46.62499023 12.80249023 45.41357422 C12.43454346 44.16334473 12.06659668 42.91311523 11.6875 41.625 C11.2979751 40.32928315 10.90742077 39.03387536 10.51586914 37.73876953 C9.72196872 35.1080291 8.93405001 32.47560515 8.15039062 29.84179688 C7.07789328 26.24620103 5.97321509 22.66115078 4.859375 19.078125 C4.53364502 18.0267334 4.20791504 16.9753418 3.87231445 15.89208984 C3.26063485 13.91790948 2.64725811 11.94425396 2.03198242 9.97119141 C1.76232666 9.09124512 1.4926709 8.21129883 1.21484375 7.3046875 C0.97886475 6.54140137 0.74288574 5.77811523 0.49975586 4.99169922 C0 3 0 3 0 0 Z " fill="#000000" transform="translate(584,60)"/>
</svg>
